<svg xmlns="http://www.w3.org/2000/svg" width="280" height="220" viewBox="0 0 280 220"><rect width="280" height="220" rx="18" fill="#080706"/><rect x="8" y="8" width="264" height="204" rx="16" fill="rgba(255,255,255,.035)" stroke="#e6ad3b" stroke-width="2"/><text x="18" y="30" fill="#e6ad3b" font-size="16" font-weight="700">洗脑 · 判定示例</text><rect x="30" y="62" width="42" height="42" rx="8" fill="#101b14" stroke="#41d470" stroke-width="2"/><text x="51" y="89" fill="#fff" text-anchor="middle" font-size="16">1</text><rect x="76" y="62" width="42" height="42" rx="8" fill="#1c0d0d" stroke="#e94646" stroke-width="2"/><text x="97" y="89" fill="#fff" text-anchor="middle" font-size="16">2</text><rect x="122" y="62" width="42" height="42" rx="8" fill="#101b14" stroke="#41d470" stroke-width="2"/><text x="143" y="89" fill="#fff" text-anchor="middle" font-size="16">3</text><rect x="168" y="62" width="42" height="42" rx="8" fill="#101b14" stroke="#41d470" stroke-width="2"/><text x="189" y="89" fill="#fff" text-anchor="middle" font-size="16">4</text><rect x="214" y="62" width="42" height="42" rx="8" fill="#1c0d0d" stroke="#e94646" stroke-width="2"/><text x="235" y="89" fill="#fff" text-anchor="middle" font-size="16">5</text><rect x="30" y="114" width="42" height="42" rx="8" fill="#101b14" stroke="#41d470" stroke-width="2"/><text x="51" y="141" fill="#fff" text-anchor="middle" font-size="16">6</text><rect x="76" y="114" width="42" height="42" rx="8" fill="#101b14" stroke="#41d470" stroke-width="2"/><text x="97" y="141" fill="#fff" text-anchor="middle" font-size="16">7</text><rect x="122" y="114" width="42" height="42" rx="8" fill="#101b14" stroke="#41d470" stroke-width="2"/><text x="143" y="141" fill="#fff" text-anchor="middle" font-size="16">8</text><rect x="168" y="114" width="42" height="42" rx="8" fill="#1c0d0d" stroke="#e94646" stroke-width="2"/><text x="189" y="141" fill="#fff" text-anchor="middle" font-size="16">9</text><text x="34" y="178" fill="#e6ad3b" font-size="16">序号、奇偶、质数、距离等看数字</text></svg>